<?xml version="1.0" encoding="UTF-8"?>
<svg width="67px" height="20px" viewBox="0 0 67 20" version="1.1" xmlns="http://www.w3.org/2000/svg" xmlns:xlink="http://www.w3.org/1999/xlink">
    <title>platzi</title>
    <g id="Symbols" stroke="none" stroke-width="1" fill="none" fill-rule="evenodd">
        <g id="logo/platzi/imago-black" transform="translate(-34.000000, -6.000000)" fill="#454543" fill-rule="nonzero">
            <g id="platzi-imago" transform="translate(-0.000000, 0.000000)">
                <path d="M78.0815238,9.2952381 L78.0815238,12.4647619 L82.567619,12.4647619 L82.567619,14.8297143 L78.0815238,14.8297143 L78.0815238,20.391619 C78.0815238,23.6967619 80.1493333,23.911619 82.8053333,22.9714286 L83.1009524,25.1748571 C78.6681905,26.5462857 75.2015238,25.5238095 75.2015238,20.4510476 L75.2015238,14.8297143 L72.5729524,14.8297143 L72.5729524,12.4647619 L75.2060952,12.4647619 L75.2060952,9.2952381 L78.0815238,9.2952381 Z M54.2339048,6.57980952 L54.2339048,20.7405714 C54.2339048,22.8906667 54.7977143,23.5626667 57.0285714,23.2137143 L57.1367619,25.4704762 C53.159619,26.1150476 51.3325714,25.0940952 51.3325714,20.768 L51.3325714,6.57980952 L54.2339048,6.57980952 Z M65.2190476,12.1691429 C67.072,12.1691429 68.8457143,12.6262857 70.5386667,13.3790476 L70.5388532,21.7857792 C70.5430397,22.8135745 70.6208352,23.4441612 71.936,23.320381 L71.936,25.3089524 C70.0815238,25.6579048 68.1737143,25.4430476 68.1737143,23.2929524 L68.1737143,22.7565714 C67.448381,24.5561905 65.6213333,25.5771429 63.7135238,25.5771429 C59.7638095,25.5771429 57.856,22.407619 57.856,18.752 C57.9367619,14.4533333 60.999619,12.088381 65.2190476,12.1691429 Z M100.184381,12.4647619 L100.184381,25.3927619 L97.255619,25.3927619 L97.255619,12.4647619 L100.184381,12.4647619 Z M42.7687619,6.57980952 C46.9607619,6.57980952 49.4064762,9.64419048 49.4064762,13.2175238 C49.4064762,16.7375238 46.9074286,19.7470476 42.7687619,19.7470476 L38.119619,19.7470476 L38.119619,25.3851429 L34.976,25.3897143 L34.976,6.57980952 L42.7687619,6.57980952 Z M95.2106667,12.4373333 L95.2106667,12.8137143 L91.207619,19.0217143 L88.5729524,22.8571429 L95.1832381,22.8571429 L95.1832381,25.383619 L84.408381,25.383619 L84.408381,24.7984762 L88.1706667,18.9135238 L90.9912381,14.8297143 L84.8121905,14.8297143 L84.8121905,12.4373333 L95.2106667,12.4373333 Z M65.0041905,14.5340952 C62.5310476,14.5340952 60.8655238,15.9573333 60.7847619,18.752 C60.7847619,21.1169524 61.9398095,22.9714286 64.3321905,22.9714286 C66.5081905,22.9714286 67.6373333,21.2784762 67.7180952,18.887619 L67.7180952,15.072 C66.860881,14.7053684 65.9364416,14.5221415 65.0041905,14.5340952 Z M42.7687619,9.2952381 L38.0662857,9.2952381 L38.0662857,17.0057143 L42.7687619,17.0087619 C44.8914286,17.0087619 46.3969524,15.3158095 46.3969524,13.1398095 C46.3969524,10.9638095 44.952381,9.2952381 42.7687619,9.2952381 Z M98.7337143,6.55238095 C99.6205714,6.55238095 100.48,7.14361905 100.48,8.2727619 C100.499608,8.73710919 100.325542,9.18875359 99.9993711,9.51983581 C99.6732002,9.85091803 99.2242075,10.0317142 98.759619,10.0190476 C97.8727619,10.0190476 96.96,9.4552381 96.96,8.2727619 C96.96,7.11314286 97.8468571,6.55238095 98.7337143,6.55238095 Z" id="platzi"></path>
            </g>
        </g>
    </g>
</svg>